<mxfile host="app.diagrams.net" modified="2023-12-22T12:14:08.607Z" agent="Mozilla/5.0 (Macintosh; Intel Mac OS X 10_15_7) AppleWebKit/537.36 (KHTML, like Gecko) Chrome/117.0.0.0 Safari/537.36" version="22.1.11" etag="SskozJpIZUHIHECsUFmJ" type="github">
  <diagram name="Page-1" id="0GRS86D6rmeus3VAuztY">
    <mxGraphModel>
      <root>
        <mxCell id="0" />
        <mxCell id="1" parent="0" />
      </root>
    </mxGraphModel>
  </diagram>
</mxfile>
